<?xml version="1.0" encoding="UTF-8" standalone="no"?>
<svg
   xmlns:dc="http://purl.org/dc/elements/1.1/"
   xmlns:cc="http://creativecommons.org/ns#"
   xmlns:rdf="http://www.w3.org/1999/02/22-rdf-syntax-ns#"
   xmlns:svg="http://www.w3.org/2000/svg"
   xmlns="http://www.w3.org/2000/svg"
   xmlns:sodipodi="http://sodipodi.sourceforge.net/DTD/sodipodi-0.dtd"
   xmlns:inkscape="http://www.inkscape.org/namespaces/inkscape"
   sodipodi:docname="shapes.svg"
   inkscape:version="1.0beta1 (32d4812, 2019-09-19)"
   id="svg407"
   version="1.1"
   viewBox="0 0 87.5 35"
   height="35mm"
   width="87.5mm">
  <defs
     id="defs401" />
  <sodipodi:namedview
     inkscape:window-maximized="0"
     inkscape:window-y="26"
     inkscape:window-x="0"
     inkscape:window-height="874"
     inkscape:window-width="1440"
     showgrid="false"
     inkscape:document-rotation="0"
     inkscape:current-layer="layer1"
     inkscape:document-units="mm"
     inkscape:cy="391.6144"
     inkscape:cx="536.25078"
     inkscape:zoom="0.65724977"
     inkscape:pageshadow="2"
     inkscape:pageopacity="0.0"
     borderopacity="1.0"
     bordercolor="#666666"
     pagecolor="#ffffff"
     id="base" />
  <metadata
     id="metadata404">
    <rdf:RDF>
      <cc:Work
         rdf:about="">
        <dc:format>image/svg+xml</dc:format>
        <dc:type
           rdf:resource="http://purl.org/dc/dcmitype/StillImage" />
        <dc:title></dc:title>
      </cc:Work>
    </rdf:RDF>
  </metadata>
  <g
     id="layer1"
     inkscape:groupmode="layer"
     inkscape:label="Layer 1">
    <g
       transform="matrix(0.26458333,0,0,0.26458333,3.2944679,-3.0123023)"
       fill="none"
       fill-rule="evenodd"
       id="g26">
      <path
         inkscape:connector-curvature="0"
         fill="#F04141"
         style="mix-blend-mode:multiply"
         d="M 61.905,-34.23 158.099,20.28 91.117,74.792 22,34.887 Z"
         id="path10" />
      <circle
         fill="#10DC60"
         style="mix-blend-mode:multiply"
         cx="155.5"
         cy="135.5"
         r="57.5"
         id="circle12" />
      <path
         inkscape:connector-curvature="0"
         fill="#3880FF"
         style="mix-blend-mode:multiply"
         d="M 208.538,9.513 292.955,24.905 223.93,93.93 Z"
         id="path14" />
      <path
         inkscape:connector-curvature="0"
         fill="#FFCE00"
         style="mix-blend-mode:multiply"
         d="m 268.625,106.557 46.332,-26.75 46.332,26.75 v 53.5 l -46.332,26.75 -46.332,-26.75 z"
         id="path16" />
      <circle
         fill="#7044FF"
         style="mix-blend-mode:multiply"
         cx="299.5"
         cy="9.5"
         r="38.5"
         id="circle18" />
      <rect
         fill="#11D3EA"
         style="mix-blend-mode:multiply"
         transform="rotate(-60,148.47,37.886)"
         x="143.37199"
         y="-7.0560002"
         width="10.196"
         height="89.884003"
         rx="5.098"
         id="rect20" />
      <path
         inkscape:connector-curvature="0"
         d="m -25.389,74.253 84.86,8.107 c 5.498,0.525 9.53,5.407 9.004,10.905 a 10,10 0 0 1 -0.057,0.477 l -12.36,85.671 a 10.002,10.002 0 0 1 -11.634,8.42 l -86.351,-15.226 c -5.44,-0.959 -9.07,-6.145 -8.112,-11.584 l 13.851,-78.551 a 10,10 0 0 1 10.799,-8.219 z"
         fill="#7044FF"
         style="mix-blend-mode:multiply"
         id="path22" />
      <circle
         fill="#0CD1E8"
         style="mix-blend-mode:multiply"
         cx="273.5"
         cy="106.5"
         r="20.5"
         id="circle24" />
    </g>
  </g>
</svg>
